<svg xmlns="http://www.w3.org/2000/svg" viewBox="0 0 48 48" width="48" height="48">
	<style>
		tspan { white-space:pre }
		.shp0 { fill: #3a5a98 } 
		.shp1 { fill: #345387 } 
		.shp2 { fill: #2e4d72 } 
		.shp3 { fill: #ffffff } 
	</style>
	<g id="Layer">
		<path id="Layer" class="shp0" d="M24.14 47.6C11.16 47.6 0.67 37.11 0.67 24.13C0.67 11.15 11.16 0.65 24.14 0.65C37.13 0.65 47.62 11.15 47.62 24.13C47.62 37.11 37.13 47.6 24.14 47.6Z" />
		<path id="Layer" class="shp1" d="M40.75 7.56C49.92 16.73 49.92 31.6 40.75 40.76C31.58 49.93 16.72 49.93 7.55 40.76L40.75 7.56Z" />
		<path id="Layer" class="shp2" d="M47.47 26.77L30.49 9.79L21.67 18.61L22.19 19.13L17.17 24.15L21.28 28.26L20.74 28.8L25.19 33.25L20.06 38.38L28.82 47.14C38.7 45.14 46.33 36.94 47.47 26.77Z" />
		<path id="Layer" class="shp3" d="M20.04 15.41C20.04 16.13 20.04 19.35 20.04 19.35L17.16 19.35L17.16 24.16L20.04 24.16L20.04 38.47L25.96 38.47L25.96 24.16L29.94 24.16C29.94 24.16 30.31 21.85 30.49 19.33C29.98 19.33 25.99 19.33 25.99 19.33C25.99 19.33 25.99 16.53 25.99 16.04C25.99 15.54 26.63 14.88 27.27 14.88C27.91 14.88 29.25 14.88 30.5 14.88C30.5 14.23 30.5 11.96 30.5 9.87C28.84 9.87 26.94 9.87 26.11 9.87C19.89 9.87 20.04 14.69 20.04 15.41Z" />
	</g>
</svg>