<svg xmlns="http://www.w3.org/2000/svg" viewBox="0 0 43 43" width="48" height="48">
	<style>
		tspan { white-space:pre }
		.shp0 { fill: #c8232c } 
		.shp1 { fill: #ffffff } 
	</style>
	<g id="Layer">
		<g id="Layer">
			<path id="Layer" class="shp0" d="M21.66 0.72C33.22 0.72 42.6 10.1 42.6 21.66C42.6 33.22 33.22 42.6 21.66 42.6C10.1 42.6 0.72 33.22 0.72 21.66C0.72 10.1 10.1 0.72 21.66 0.72Z" />
			<path id="Layer" class="shp1" d="M22.29 9.89C14.92 9.89 11.2 15.01 11.2 19.28C11.2 21.87 12.21 24.17 14.38 25.03C14.73 25.17 15.05 25.03 15.15 24.65L15.47 23.44C15.58 23.07 15.54 22.93 15.25 22.6C14.62 21.89 14.22 20.97 14.22 19.66C14.22 15.86 17.16 12.46 21.87 12.46C26.04 12.46 28.33 14.92 28.33 18.22C28.33 22.55 26.35 26.21 23.41 26.21C21.78 26.21 20.57 24.91 20.96 23.31C21.42 21.41 22.33 19.35 22.33 17.98C22.33 16.75 21.65 15.72 20.23 15.72C18.57 15.72 17.24 17.38 17.24 19.61C17.24 21.03 17.73 21.99 17.73 21.99L15.74 30.19C15.14 32.62 15.65 35.6 15.69 35.9C15.72 36.08 15.95 36.12 16.06 35.98C16.21 35.79 18.19 33.43 18.86 31.06C19.05 30.39 19.95 26.93 19.95 26.93C20.49 27.93 22.07 28.8 23.75 28.8C28.74 28.8 32.12 24.4 32.12 18.5C32.12 14.04 28.22 9.89 22.29 9.89Z" />
		</g>
	</g>
</svg>