<svg xmlns="http://www.w3.org/2000/svg" viewBox="0 0 48 48" width="48" height="48">
	<style>
		tspan { white-space:pre }
		.shp0 { fill: #26a6d1 } 
		.shp1 { fill: #ffffff } 
	</style>
	<g id="Layer">
		<path id="Layer" class="shp0" d="M24 0C37.26 0 48 10.75 48 24C48 37.26 37.26 48 24 48C10.74 48 0 37.26 0 24C0 10.75 10.74 0 24 0Z" />
		<path id="Layer" class="shp1" d="M39 16.17C37.96 16.62 36.83 16.93 35.64 17.06C36.85 16.36 37.78 15.25 38.22 13.92C37.09 14.57 35.84 15.05 34.5 15.3C33.44 14.2 31.92 13.51 30.23 13.51C27 13.51 24.39 16.05 24.39 19.18C24.39 19.63 24.44 20.06 24.54 20.48C19.68 20.24 15.37 17.98 12.48 14.55C11.98 15.39 11.69 16.36 11.69 17.4C11.69 19.37 12.72 21.11 14.29 22.12C13.33 22.09 12.43 21.84 11.64 21.41L11.64 21.48C11.64 24.24 13.66 26.53 16.33 27.05C15.84 27.18 15.33 27.25 14.79 27.25C14.42 27.25 14.05 27.22 13.69 27.15C14.44 29.4 16.6 31.05 19.16 31.09C17.16 32.61 14.63 33.52 11.89 33.52C11.42 33.52 10.96 33.49 10.5 33.44C13.09 35.05 16.16 35.99 19.46 35.99C30.22 35.99 36.11 27.34 36.11 19.84L36.09 19.11C37.23 18.31 38.22 17.31 39 16.17Z" />
	</g>
	<g id="Layer">
	</g>
	<g id="Layer">
	</g>
	<g id="Layer">
	</g>
	<g id="Layer">
	</g>
	<g id="Layer">
	</g>
	<g id="Layer">
	</g>
	<g id="Layer">
	</g>
	<g id="Layer">
	</g>
	<g id="Layer">
	</g>
	<g id="Layer">
	</g>
	<g id="Layer">
	</g>
	<g id="Layer">
	</g>
	<g id="Layer">
	</g>
	<g id="Layer">
	</g>
	<g id="Layer">
	</g>
</svg>